<?xml version="1.0" standalone="no"?><!DOCTYPE svg PUBLIC "-//W3C//DTD SVG 1.1//EN" "http://www.w3.org/Graphics/SVG/1.1/DTD/svg11.dtd"><svg t="1558490660153" class="icon" style="" viewBox="0 0 1024 1024" version="1.1" xmlns="http://www.w3.org/2000/svg" p-id="4434" xmlns:xlink="http://www.w3.org/1999/xlink" width="32" height="32"><defs><style type="text/css"></style></defs><path d="M908.824484 759.406432s9.847482-142.385852-125.175765-195.85676a210.627984 210.627984 0 0 0-208.085585 42.208426S489.409167 678.774419 517.686167 793.918637c0 0 53.125787 150.898862 193.130296 149.552886 0 0 190.11623-8.973173 198.008021-184.065091h-34.512204s1.219431 149.552886-161.056954 149.552886c0 0-133.205605 2.300814-161.056955-149.552886 0 0 6.902441-172.561022 172.561023-172.561022 0 0 149.552886 1.691098 149.552886 172.561022h34.512204z" p-id="4435" fill="#bfbfbf"></path><path d="M92.035645 253.227433v690.24409h402.642386a35.225457 35.225457 0 0 1 0 57.520341H69.027509s-46.016273 6.465286-46.016273-46.016273V230.219297s1.322968-46.016273 34.512204-46.016273h851.301044s46.016273 11.043905 46.016273 46.016273v299.105772s-27.805333 51.768307-69.024409 0V253.227433H92.035645z" p-id="4436" fill="#bfbfbf"></path><path d="M276.100735 402.780319v57.520341h402.642386v-57.520341H276.100735z" p-id="4437" fill="#bfbfbf"></path><path d="M46.019372 184.203024l103.536614-149.552886s16.519842-34.512204 69.024409-34.512204h529.187135s29.369886-4.256505 57.520341 34.512204l126.54475 161.056954h-80.528478L736.263462 57.658275H207.076327L115.043781 184.203024H46.019372z" p-id="4438" fill="#bfbfbf"></path><path d="M839.800075 897.45525l115.040682 126.54475 46.016273-34.512204-126.54475-138.048818z" p-id="4439" fill="#bfbfbf"></path></svg>