<?xml version="1.0" standalone="no"?><!DOCTYPE svg PUBLIC "-//W3C//DTD SVG 1.1//EN" "http://www.w3.org/Graphics/SVG/1.1/DTD/svg11.dtd"><svg t="1558956472226" class="icon" style="" viewBox="0 0 1024 1024" version="1.1" xmlns="http://www.w3.org/2000/svg" p-id="2754" xmlns:xlink="http://www.w3.org/1999/xlink" width="32" height="32"><defs><style type="text/css"></style></defs><path d="M950.172285 345.168539V266.163296L700.883895 0H275.943071a84.374532 84.374532 0 0 0-83.991011 83.991011v26.079401h-34.133333A84.374532 84.374532 0 0 0 73.827715 194.444944v745.564045a84.374532 84.374532 0 0 0 83.991012 83.991011h590.238202a84.374532 84.374532 0 0 0 83.991011-83.991011v-26.079401h34.133333a84.374532 84.374532 0 0 0 83.991012-83.991011V345.168539z m-279.586517 433.378277a27.997004 27.997004 0 0 1-27.613483 27.613484h-383.5206a27.997004 27.997004 0 0 1-27.613483-27.613484v-4.602247a27.997004 27.997004 0 0 1 27.613483-27.613483h383.5206a27.997004 27.997004 0 0 1 27.613483 27.613483z m0-178.720599a27.997004 27.997004 0 0 1-27.613483 27.613483h-383.5206a27.997004 27.997004 0 0 1-27.613483-27.613483v-4.602247a27.997004 27.997004 0 0 1 27.613483-27.613483h383.5206a27.997004 27.997004 0 0 1 27.613483 27.613483z m-76.70412-199.430711a38.35206 38.35206 0 0 1-38.35206-38.35206v-191.7603l217.072659 233.180524z m296.461423-63.280899V816.898876a38.35206 38.35206 0 0 1-38.35206 38.35206h-19.55955V376.617228l-249.67191-266.546816H248.713109v-13.423221a38.35206 38.35206 0 0 1 38.35206-38.35206h383.520599l218.990262 233.564045z" p-id="2755" fill="#bfbfbf"></path></svg>