<?xml version="1.0" standalone="no"?><!DOCTYPE svg PUBLIC "-//W3C//DTD SVG 1.1//EN" "http://www.w3.org/Graphics/SVG/1.1/DTD/svg11.dtd"><svg t="1558957744303" class="icon" style="" viewBox="0 0 1024 1024" version="1.1" xmlns="http://www.w3.org/2000/svg" p-id="2951" xmlns:xlink="http://www.w3.org/1999/xlink" width="32" height="32"><defs><style type="text/css"></style></defs><path d="M495.27 785.92c-15.892 0-30.664-8.192-39.081-21.668-22.984-36.803-224.568-363.295-224.568-492.918 0-145.377 118.272-263.649 263.649-263.649s263.649 118.272 263.649 263.649c0 129.623-201.58 456.12-224.563 492.918-8.422 13.476-23.194 21.668-39.086 21.668zM495.27 99.84c-94.561 0-171.489 76.928-171.489 171.489 0 66.227 93.46 246.784 171.489 379.5 78.029-132.716 171.489-313.272 171.489-379.5 0-94.561-76.933-171.489-171.489-171.489z" p-id="2952" fill="#bfbfbf"></path><path d="" p-id="2953" fill="#bfbfbf"></path><path d="" p-id="2954" fill="#bfbfbf"></path><path d="M495.27 386.56c-62.817 0-113.92-51.103-113.92-113.92s51.103-113.92 113.92-113.92c62.812 0 113.92 51.103 113.92 113.92s-51.108 113.92-113.92 113.92zM495.27 230.4c-23.291 0-42.24 18.949-42.24 42.24s18.949 42.24 42.24 42.24c23.286 0 42.24-18.949 42.24-42.24s-18.954-42.24-42.24-42.24z" p-id="2955" fill="#bfbfbf"></path><path d="M865.185 1012.444h-739.84c-13.21 0-25.779-5.663-34.524-15.56-8.745-9.902-12.826-23.071-11.208-36.178l46.080-372.444c2.857-23.086 22.472-40.422 45.732-40.422h104.202c25.452 0 46.080 20.628 46.080 46.080s-20.628 46.080-46.080 46.080h-63.468l-34.678 280.284h635.571l-34.678-280.284h-62.428c-25.452 0-46.080-20.628-46.080-46.080s20.628-46.080 46.080-46.080h103.158c23.26 0 42.875 17.336 45.732 40.422l46.080 372.444c1.623 13.112-2.452 26.281-11.203 36.178-8.745 9.897-21.32 15.56-34.529 15.56z" p-id="2956" fill="#bfbfbf"></path></svg>