<?xml version="1.0" standalone="no"?><!DOCTYPE svg PUBLIC "-//W3C//DTD SVG 1.1//EN" "http://www.w3.org/Graphics/SVG/1.1/DTD/svg11.dtd"><svg t="1559784550852" class="icon" style="" viewBox="0 0 1024 1024" version="1.1" xmlns="http://www.w3.org/2000/svg" p-id="1399" xmlns:xlink="http://www.w3.org/1999/xlink" width="32" height="32"><defs><style type="text/css"></style></defs><path d="M175.6 727.7c0-10.8 8.8-19.7 19.7-19.7h339.5l113.5-196.5h-453c-10.8 0-19.7-8.8-19.7-19.7 0-10.8 8.8-19.7 19.7-19.7h475.8l108.3-187.4c15.7-27.3 45.2-44.2 76.6-44.2 9.3 0 18.4 1.5 27.3 4.4V108.7C883.3 49 834.9 0.6 775.2 0.6H126.5C66.8 0.6 18.4 49 18.4 108.7v805.7c0 59.7 48.4 108.1 108.1 108.1h341.9c-3.7-10.1-5.4-20.9-5.2-32.2l4.4-144.9c0.5-14.5 4.4-29 11.8-41.5l32.7-56.5H195.3c-10.8-0.1-19.7-8.9-19.7-19.7z m19.7-491.3h510.9c10.8 0 19.7 8.8 19.7 19.6s-8.8 19.7-19.7 19.7H195.3c-10.8 0-19.7-8.8-19.7-19.7 0-10.7 8.9-19.6 19.7-19.6zM721.7 992l-49.1 30.5H775c59.7 0 108.1-48.4 108.1-108.1V733.8L751.9 961.1c-7.4 12.5-17.7 23.3-30.2 30.9z m281.7-601.8c-2-7.6-6.9-14-13.8-17.9l-119.1-68.8c-14-8.1-32.2-3.2-40.3 10.8L786 390.9l170.2 98.3 44.2-76.6c4-6.9 5-15 3-22.4zM700.8 931.6l-170.2-98.3c-2.5 4.2-3.7 9.1-3.9 13.8L522.2 992c-0.2 10.8 5.4 20.9 14.7 26.3 4.7 2.7 9.6 3.9 14.7 3.9 5.4 0 10.8-1.5 15.5-4.4l123.3-76.1c4.5-2.5 7.9-5.9 10.4-10.1zM550.2 799.2l170.2 98.3 216.2-374.4-170.2-98.3-216.2 374.4z m0 0" p-id="1400" fill="#bfbfbf"></path></svg>