<?xml version="1.0" standalone="no"?><!DOCTYPE svg PUBLIC "-//W3C//DTD SVG 1.1//EN" "http://www.w3.org/Graphics/SVG/1.1/DTD/svg11.dtd"><svg t="1548832467871" class="icon" style="" viewBox="0 0 1024 1024" version="1.1" xmlns="http://www.w3.org/2000/svg" p-id="4670" xmlns:xlink="http://www.w3.org/1999/xlink" width="16" height="16"><defs><style type="text/css"></style></defs><path d="M972.14236445 741.2224l-228.29966223-228.28373333c14.70236445-41.04419555 22.14343111-83.94752 22.14343111-127.91580445 0-210.03719111-170.87146667-380.92686222-380.928-380.92686222-52.29226667 0-103.168 10.54037333-151.17312 31.31847111l-22.71004444 9.8304c-0.03640889 0.03754667 0.14222222 0.05461333 0.07054222 0.08988444a19.33653333 19.33653333 0 0 0-5.95171556 4.07438223c-7.51160889 7.52753778-7.51160889 19.76888889 0.03754667 27.31576889 0.10581333 0.10695111-0.10695111 0.15928889-0.03754667 0.26510222l213.27872 213.28099556-128.28785777 128.26737777-208.99271111-209.00977777c-0.31857778 0.03640889-0.63715555 0.05347555-1.06268445-0.37091556-8.8576-8.85646222-23.20611555-8.85646222-32.06485333 0-2.40867555 2.42688-4.18133333 5.24515555-5.27928889 8.25571556-0.10581333 0.28330667-0.24803555 0.14222222-0.38912 0.15928888l-7.05080889 16.29752889c-20.75875555 47.95164445-31.31733333 98.82737778-31.31733333 151.15377778 0 210.02012445 170.87146667 380.928 380.928 380.928 43.9296 0 86.83406222-7.44106667 127.92945777-22.14343111l228.3008 228.26894222c30.82467555 30.82126222 71.81653333 47.82648889 115.42755556 47.82648889h0.03868444c43.57575111 0 84.60288-17.00522667 115.42755556-47.82648889 63.59267555-63.63136 63.59267555-167.18848-0.03754666-230.85511111z m-51.26485334 179.55271111c-17.14631111 17.14858667-39.92803555 26.57166222-64.12515556 26.57166222h-0.03754666c-24.23239111 0-47.01297778-9.42421333-64.12515556-26.57052444L530.03036445 658.24995555l-22.63722667 9.77806223c-38.86535111 16.82773333-80.03356445 25.36448-122.33614223 25.36448-170.02040889 0-308.36849778-138.31168-308.36849777-308.36849778 0-23.63050667 2.65671111-46.89009778 7.936-69.56487111l191.80885333 191.84526222c8.04408889 6.41365333 19.09418667 6.50126222 27.27936 0.4096l201.65973334-201.65973333c0.07054222-0.07054222-0.07281778-0.15928889 0-0.22983111 8.21816889-8.22044445 8.46620445-21.04547555 1.41539555-29.95655112L315.47505778 84.57216c22.71004445-5.25994667 45.95029333-7.91665778 69.5808-7.91665778 170.02154667 0 308.37191111 138.33102222 308.37191111 308.36849778 0 42.35605333-8.54129778 83.50492445-25.36789334 122.30087111l-9.77806222 22.63722667 262.55928889 262.55928889c35.35872 35.36213333 35.35872 92.89500445 0.03640889 128.25486222z" fill="#bfbfbf" p-id="4671"></path></svg>