<?xml version="1.0" standalone="no"?><!DOCTYPE svg PUBLIC "-//W3C//DTD SVG 1.1//EN" "http://www.w3.org/Graphics/SVG/1.1/DTD/svg11.dtd"><svg t="1561534689870" class="icon" viewBox="0 0 1024 1024" version="1.1" xmlns="http://www.w3.org/2000/svg" p-id="1954" xmlns:xlink="http://www.w3.org/1999/xlink" width="32" height="32"><defs><style type="text/css"></style></defs><path d="M725.333333 454.186667v-97.706667c-49.92-17.792-81.365333-22.741333-97.28-61.056-15.914667-38.4 2.986667-64.512 25.6-112L584.618667 114.346667c-47.146667 22.4-73.514667 41.557333-112.042667 25.6-38.4-15.914667-43.392-47.616-61.056-97.28h-97.706667c-17.578667 49.408-22.613333 81.365333-61.056 97.28h-0.042666c-38.4 15.957333-64.426667-2.986667-112-25.6L71.722667 183.424c22.485333 47.36 41.514667 73.557333 25.6 112C81.322667 333.866667 49.408 338.901333 0 356.48v97.664c49.28 17.578667 81.365333 22.656 97.28 61.056 16.042667 38.741333-3.456 65.450667-25.6 112l69.034667 69.077333c47.232-22.4 73.557333-41.557333 112-25.6h0.042666c38.4 15.914667 43.434667 47.701333 61.056 97.28h97.664c17.578667-49.408 22.613333-81.28 61.312-97.365333h0.042667c38.144-15.872 64.042667 3.029333 111.744 25.685333l69.034667-69.077333c-22.4-47.232-41.557333-73.514667-25.642667-112 15.957333-38.357333 48.042667-43.477333 97.365333-61.013333z m-362.666666 72.064a120.917333 120.917333 0 1 1 0.085333-241.834667 120.917333 120.917333 0 0 1-0.085333 241.834667zM1024 705.664v-45.952c-23.466667-8.362667-38.272-10.709333-45.781333-28.714667-7.509333-18.090667 1.408-30.336 12.032-52.736l-32.512-32.512c-22.186667 10.581333-34.602667 19.541333-52.693334 12.074667-18.090667-7.466667-20.437333-22.4-28.757333-45.781333h-45.909333c-8.277333 23.253333-10.666667 38.272-28.757334 45.781333-18.090667 7.509333-30.336-1.408-52.693333-12.074667l-32.512 32.512c10.581333 22.314667 19.541333 34.645333 12.032 52.736-7.509333 18.090667-22.528 20.437333-45.781333 28.714667v45.952c23.210667 8.234667 38.272 10.666667 45.781333 28.714667 7.552 18.218667-1.621333 30.805333-12.032 52.736l32.512 32.512c22.229333-10.581333 34.645333-19.541333 52.693333-12.074667 18.090667 7.466667 20.437333 22.442667 28.757334 45.781333h45.909333c8.277333-23.253333 10.666667-38.272 28.842667-45.824h0.042666c17.962667-7.466667 30.122667 1.450667 52.565334 12.117334l32.512-32.512c-10.538667-22.229333-19.541333-34.645333-12.032-52.693334s22.570667-20.522667 45.781333-28.757333z m-170.666667 33.877333a56.874667 56.874667 0 1 1 0-113.792 56.874667 56.874667 0 0 1 0 113.792z m-170.666666 131.029334v-34.474667c-17.578667-6.272-28.714667-8.021333-34.346667-21.546667s1.024-22.741333 9.045333-39.552l-24.405333-24.362666c-16.597333 7.936-25.898667 14.677333-39.509333 9.045333s-15.317333-16.810667-21.589334-34.346667h-34.432c-6.229333 17.450667-8.021333 28.714667-21.589333 34.346667-13.525333 5.632-22.741333-1.024-39.509333-9.045333l-24.405334 24.362666c7.978667 16.768 14.677333 25.984 9.045334 39.552-5.632 13.568-16.896 15.317333-34.346667 21.546667v34.474667c17.408 6.186667 28.714667 8.021333 34.346667 21.546666 5.674667 13.653333-1.194667 23.125333-9.045334 39.552l24.405334 24.362667c16.64-7.936 25.941333-14.677333 39.509333-9.045333 13.568 5.632 15.317333 16.853333 21.589333 34.346666h34.432c6.229333-17.450667 8.021333-28.714667 21.632-34.346666h0.042667c13.44-5.589333 22.570667 1.066667 39.424 9.088l24.405333-24.362667c-7.936-16.682667-14.677333-25.984-9.045333-39.552s16.938667-15.402667 34.346667-21.589333zM554.666667 896a42.666667 42.666667 0 1 1 0-85.333333 42.666667 42.666667 0 0 1 0 85.333333z" p-id="1955" fill="#bfbfbf"></path></svg>