<?xml version="1.0" standalone="no"?><!DOCTYPE svg PUBLIC "-//W3C//DTD SVG 1.1//EN" "http://www.w3.org/Graphics/SVG/1.1/DTD/svg11.dtd"><svg t="1560759629436" class="icon" style="" viewBox="0 0 1024 1024" version="1.1" xmlns="http://www.w3.org/2000/svg" p-id="2661" xmlns:xlink="http://www.w3.org/1999/xlink" width="32" height="32"><defs><style type="text/css"></style></defs><path d="M833.916343 862.8224c0 52.399543-43.008 95.0272-95.875657 95.0272H158.193371c-52.867657 0-95.875657-42.627657-95.875657-95.0272V197.778286c0-52.399543 43.008-95.0272 95.875657-95.0272h295.3216v-51.492572H130.8672C66.7648 51.258514 14.628571 102.926629 14.628571 166.443886v727.712914c0 63.517257 52.136229 115.214629 116.238629 115.214629h634.4704c64.073143 0 116.267886-51.697371 116.267886-115.214629V509.834971h-47.689143v352.987429z m146.490514-753.956571l-66.121143-65.536A98.889143 98.889143 0 0 0 844.302629 14.628571c-26.389943 0-51.229257 10.210743-69.953829 28.701258l-401.437257 397.897142c-14.862629 14.7456-74.752 87.010743-75.688229 114.951315L248.685714 768.555886l214.747429-48.186515 0.8192-0.2048 0.731428-0.438857c3.8912-2.282057 95.407543-55.939657 113.956572-74.3424L980.406857 247.515429c18.695314-18.519771 28.964571-43.154286 28.964572-69.339429s-10.298514-50.7904-28.964572-69.310171zM442.660571 666.448457l-117.642971 26.448457 27.794286-121.768228 93.7984 92.9792c-1.316571 0.8192-2.633143 1.579886-3.949715 2.340571z m95.670858-61.527771c-4.359314 4.096-19.719314 14.570057-41.428115 28.350171l-114.746514-113.751771c11.995429-16.032914 24.107886-30.661486 31.480686-37.946515L712.118857 185.782857l124.547657 123.465143L538.331429 604.920686zM939.651657 207.169829l-62.288457 61.732571-124.576914-123.465143 62.317714-61.732571c7.7824-7.753143 18.139429-11.995429 29.198629-11.995429 11.029943 0 21.416229 4.271543 29.227885 12.024686l66.179657 65.536a40.667429 40.667429 0 0 1-0.058514 57.899886z" p-id="2662" fill="#bfbfbf"></path></svg>