<?xml version="1.0" standalone="no"?><!DOCTYPE svg PUBLIC "-//W3C//DTD SVG 1.1//EN" "http://www.w3.org/Graphics/SVG/1.1/DTD/svg11.dtd"><svg t="1558490686389" class="icon" style="" viewBox="0 0 1024 1024" version="1.1" xmlns="http://www.w3.org/2000/svg" p-id="4672" xmlns:xlink="http://www.w3.org/1999/xlink" width="32" height="32"><defs><style type="text/css"></style></defs><path d="M439.348571 99.76v428.72a56.24 56.24 0 0 0 56.171429 56.171429H924.228571a431.497143 431.497143 0 0 1-40.365714 139.748571 442.674286 442.674286 0 0 1-95.782857 130.525714c-82.068571 77.268571-188.571429 119.817143-299.977143 119.817143-8.16 0-16.457143-0.228571-24.64-0.685714-106.548571-5.954286-207.668571-51.691429-284.754286-128.765714S55.897143 667.085714 49.942857 560.537143a431.84 431.84 0 0 1 25.142857-172.034286 445.222857 445.222857 0 0 1 219.428572-245.828571 431.668571 431.668571 0 0 1 144.834285-42.914286m19.051429-50.514286q-1.017143 0-2.022857 0.068572C194.491429 66.468571-13.782857 294.342857 1.257143 563.257143c13.714286 245.085714 214.4 445.782857 459.428571 459.428571 9.142857 0.514286 18.285714 0.765714 27.36 0.765715 256.868571 0 470.011429-202.914286 486.582857-455.885715 1.142857-17.074286-12.011429-31.737143-29.12-31.737143H495.52a7.405714 7.405714 0 0 1-7.405714-7.405714V78.434286a29.394286 29.394286 0 0 0-29.714286-29.188572z" fill="#bfbfbf" p-id="4673"></path><path d="M585.634286 50.994286a438.857143 438.857143 0 0 1 387.428571 387.428571h-387.428571v-387.428571M566.777143 0.491429a29.714286 29.714286 0 0 0-29.908572 29.497142v427.702858a29.451429 29.451429 0 0 0 29.44 29.44h427.702858a29.714286 29.714286 0 0 0 29.428571-32A487.611429 487.611429 0 0 0 568.822857 0.56c-0.685714 0-1.371429-0.068571-2.045714-0.068571z" fill="#bfbfbf" p-id="4674"></path></svg>