<?xml version="1.0" standalone="no"?><!DOCTYPE svg PUBLIC "-//W3C//DTD SVG 1.1//EN" "http://www.w3.org/Graphics/SVG/1.1/DTD/svg11.dtd"><svg t="1558490739554" class="icon" style="" viewBox="0 0 1024 1024" version="1.1" xmlns="http://www.w3.org/2000/svg" p-id="6269" xmlns:xlink="http://www.w3.org/1999/xlink" width="32" height="32"><defs><style type="text/css"></style></defs><path d="M511.005 258.16c-140.203 0-253.86 113.657-253.86 253.86s113.657 253.86 253.86 253.86 253.86-113.657 253.86-253.86-113.657-253.86-253.86-253.86z m0 444.403c-105.233 0-190.542-85.309-190.542-190.542s85.309-190.542 190.542-190.542 190.542 85.309 190.542 190.542-85.308 190.542-190.542 190.542zM340.111 97.999C230.822 143.158 143.308 230.325 97.701 339.38c-8.828 21.109 6.639 44.409 29.519 44.409h0.011c12.891 0 24.538-7.727 29.508-19.621 39.091-93.556 114.159-168.334 207.915-207.041 11.964-4.939 19.755-16.62 19.755-29.563-0.001-22.828-23.2-38.283-44.298-29.565zM640.583 128.82v0.001c0 12.936 7.818 24.524 19.733 29.561 92.299 39.017 166.159 113.102 204.863 205.564 5.012 11.973 16.628 19.843 29.607 19.843 22.872 0 38.355-23.29 29.531-44.391-45.164-108.006-131.434-194.543-239.251-240.07-21.11-8.914-44.483 6.577-44.483 29.492zM364.655 866.914c-93.845-38.743-168.968-113.625-208.028-207.306-4.964-11.906-16.618-19.643-29.517-19.643h-0.011c-22.873 0-38.336 23.284-29.527 44.392 45.572 109.197 133.147 196.484 242.537 241.685 21.099 8.719 44.299-6.736 44.299-29.565 0-12.943-7.79-24.624-19.753-29.563zM865.291 659.83c-38.674 92.587-112.588 166.776-204.977 205.83-11.915 5.037-19.732 16.625-19.732 29.561v0.001c0 22.916 23.374 38.406 44.486 29.492 107.918-45.571 194.249-132.227 239.378-240.375 8.805-21.101-6.674-44.374-29.538-44.374-12.989 0-24.611 7.88-29.617 19.865z" p-id="6270" fill="#bfbfbf"></path></svg>