<?xml version="1.0" standalone="no"?><!DOCTYPE svg PUBLIC "-//W3C//DTD SVG 1.1//EN" "http://www.w3.org/Graphics/SVG/1.1/DTD/svg11.dtd"><svg t="1558939162465" class="icon" style="" viewBox="0 0 1024 1024" version="1.1" xmlns="http://www.w3.org/2000/svg" p-id="1966" xmlns:xlink="http://www.w3.org/1999/xlink" width="32" height="32"><defs><style type="text/css"></style></defs><path d="M894.832152 735.318158h-31.902594V639.610376c0-35.239596-28.565593-63.805188-63.805188-63.805188H224.87563c-35.239596 0-63.805188 28.565593-63.805188 63.805188v95.707782h-31.902594c-35.239596 0-63.805188-28.565593-63.805188-63.805188V288.680818c0-35.239596 28.565593-63.805188 63.805188-63.805188h765.664304c35.239596 0 63.805188 28.565593 63.805188 63.805188v382.832152c0 35.239596-28.565593 63.805188-63.805188 63.805188zM256.778224 320.583412c-35.239596 0-63.805188 28.565593-63.805188 63.805189s28.565593 63.805188 63.805188 63.805188 63.805188-28.565593 63.805188-63.805188-28.565593-63.805188-63.805188-63.805189zM224.87563 65.36266h574.247716v127.610376H224.87563V65.36266z m574.247716 893.27468H224.87563V639.610376h574.247716v319.026964z m-63.805188-255.221776H288.680818v63.805188h446.63734v-63.805188z m0 127.6114H288.680818v63.805188h446.63734v-63.805188z" p-id="1967" fill="#bfbfbf"></path></svg>