<?xml version="1.0" standalone="no"?><!DOCTYPE svg PUBLIC "-//W3C//DTD SVG 1.1//EN" "http://www.w3.org/Graphics/SVG/1.1/DTD/svg11.dtd"><svg t="1558485539019" class="icon" style="" viewBox="0 0 1024 1024" version="1.1" xmlns="http://www.w3.org/2000/svg" p-id="1986" xmlns:xlink="http://www.w3.org/1999/xlink" width="32" height="32"><defs><style type="text/css"></style></defs><path d="M190.4 982.4c-91.2 0-166.4-96-166.4-214.4L24 267.2c0-118.4 75.2-214.4 166.4-214.4l102.4 0 0 88-102.4 0c-48 0-86.4 65.6-86.4 126.4L104 784c0 60.8 38.4 110.4 86.4 110.4l630.4 0c48 0 86.4-49.6 86.4-110.4L907.2 267.2c0-60.8-38.4-126.4-86.4-126.4l-104 0L716.8 52.8l102.4 0c91.2 0 166.4 96 166.4 214.4L985.6 768c0 118.4-75.2 214.4-166.4 214.4L190.4 982.4 190.4 982.4zM363.2 435.2l108.8 0L472 52.8l84.8 0 0 382.4 108.8 0-152 289.6L363.2 435.2 363.2 435.2zM363.2 377.6" p-id="1987" fill="#bfbfbf"></path></svg>