<?xml version="1.0" standalone="no"?><!DOCTYPE svg PUBLIC "-//W3C//DTD SVG 1.1//EN" "http://www.w3.org/Graphics/SVG/1.1/DTD/svg11.dtd"><svg t="1558485595304" class="icon" style="" viewBox="0 0 1024 1024" version="1.1" xmlns="http://www.w3.org/2000/svg" p-id="2797" xmlns:xlink="http://www.w3.org/1999/xlink" width="32" height="32"><defs><style type="text/css"></style></defs><path d="M215.488 827.712c0 15.872 12.864 28.608 28.672 28.608h554.752a28.608 28.608 0 1 0 0-57.28H244.16a28.608 28.608 0 0 0-28.672 28.672z m127.424-438.912L483.2 248.448v464.384a28.736 28.736 0 0 0 57.472 0V248.448l140.288 140.352a28.672 28.672 0 0 0 40.576-40.512l-189.248-189.44a28.8 28.8 0 0 0-40.64 0l-189.248 189.44a28.608 28.608 0 1 0 40.512 40.512zM923.264 14.656h-133.888V16.64a28.48 28.48 0 0 0-19.136 26.752c0 12.416 8.064 22.784 19.136 26.752v1.92h95.616c42.304 0 76.608 34.304 76.608 76.48V875.52c0 42.24-34.304 76.48-76.608 76.48H138.944c-42.24 0-76.48-34.24-76.48-76.48V148.48c0-42.24 34.24-76.48 76.48-76.48h95.68v-1.92c3.008 1.088 6.144 1.92 9.536 1.92a28.736 28.736 0 0 0 0-57.408 25.856 25.856 0 0 0-9.536 1.984v-1.92H100.672C47.872 14.656 5.056 57.472 5.056 110.336v803.456c0 52.8 42.816 95.616 95.616 95.616h822.592c52.8 0 95.68-42.816 95.68-95.616V110.336c0-52.928-42.88-95.68-95.68-95.68z" p-id="2798" fill="#bfbfbf"></path></svg>