<?xml version="1.0" standalone="no"?><!DOCTYPE svg PUBLIC "-//W3C//DTD SVG 1.1//EN" "http://www.w3.org/Graphics/SVG/1.1/DTD/svg11.dtd"><svg t="1546658969639" class="icon" style="" viewBox="0 0 1024 1024" version="1.1" xmlns="http://www.w3.org/2000/svg" p-id="4617" xmlns:xlink="http://www.w3.org/1999/xlink" width="16" height="16"><defs><style type="text/css">@font-face { font-family: nc_iconfont; src: url("//at.alicdn.com/t/font_1465353706_4784257.eot?#iefix") format("embedded-opentype"), url("//at.alicdn.com/t/font_1465353706_4784257.woff") format("woff"), url("//at.alicdn.com/t/font_1465353706_4784257.ttf") format("truetype"), url("//at.alicdn.com/t/font_1465353706_4784257.svg#iconfont") format("svg"); }
@font-face { font-family: ncpc_iconfont; src: url("//at.alicdn.com/t/font_384029_rhzpmteb25oecdi.eot?#iefix") format("embedded-opentype"), url("//at.alicdn.com/t/font_384029_rhzpmteb25oecdi.woff") format("woff"), url("//at.alicdn.com/t/font_384029_rhzpmteb25oecdi.ttf") format("truetype"), url("//at.alicdn.com/t/font_384029_rhzpmteb25oecdi.svg#ncpc_iconfont") format("svg"); }
</style></defs><path d="M262.852608 765.302784H175.43168c-26.226688 0-52.451328-21.856256-52.451328-52.44928v-406.50752c0-26.226688 21.854208-52.451328 52.451328-52.451328h87.420928c26.22464 0 52.451328 21.854208 52.451328 52.451328v406.50752c-4.370432 30.59712-26.22464 52.451328-52.451328 52.44928z m279.742464 0h-87.41888c-26.22464 0-52.453376-21.856256-52.453376-52.44928v-253.52192c0-26.22464 21.856256-52.451328 52.453376-52.451328h87.420928c26.226688 0 52.44928 21.854208 52.44928 52.451328v253.52192c0.002048 30.59712-21.85216 52.451328-52.451328 52.44928z m288.489472 0h-87.420928c-26.226688 0-52.453376-21.856256-52.453376-52.44928V162.101248c0-26.22464 21.856256-52.451328 52.453376-52.451328h87.420928c26.226688 0 52.44928 21.854208 52.44928 52.451328v550.750208c0 30.599168-26.22464 52.453376-52.44928 52.451328z m148.611072 152.987648H44.302336c-21.856256 0-39.340032-21.858304-39.340032-39.340032v-4.37248c0-21.856256 21.856256-39.340032 39.340032-39.340032h935.397376c21.854208 0 39.337984 21.856256 39.337984 39.340032v4.37248c0 17.481728-17.483776 39.340032-39.337984 39.340032h-0.004096z" fill="#bfbfbf" p-id="4618"></path></svg>